<svg xmlns="http://www.w3.org/2000/svg" width="107.152" height="107.173" viewBox="0 0 107.152 107.173"><defs><style>.a{opacity:0.8;}.b{fill:#aeb4a6;}</style></defs><g class="a"><path class="b" d="M53.576,107.173c-14.411,0-16.321-.06-22.088-.313a39.562,39.562,0,0,1-13-2.491A26.527,26.527,0,0,1,9,98.192a26.3,26.3,0,0,1-6.2-9.5,39.347,39.347,0,0,1-2.492-13C.06,69.9,0,67.983,0,53.6,0,39.107.064,37.206.335,31.488a39.536,39.536,0,0,1,2.491-13A26.526,26.526,0,0,1,9,9a26.07,26.07,0,0,1,9.506-6.2,39.349,39.349,0,0,1,13-2.491C37.294.06,39.207,0,53.6,0c14.495,0,16.4.064,22.109.336a39.529,39.529,0,0,1,13,2.491A26.511,26.511,0,0,1,98.191,9a26.063,26.063,0,0,1,6.2,9.5,39.336,39.336,0,0,1,2.491,13c.25,5.686.273,7.543.273,22.088,0,14.39-.06,16.3-.314,22.088a39.562,39.562,0,0,1-2.491,13,27.465,27.465,0,0,1-15.682,15.682,39.349,39.349,0,0,1-13,2.491C69.9,107.113,67.986,107.173,53.576,107.173ZM35.195,43.966v12.9H45.733V89.31h12.92V56.865H68.764l1.6-12.9H58.649V35.085c0-2.162.357-3.561,1.153-4.537.956-1.172,2.607-1.742,5.046-1.742h6.623V17.271a85.619,85.619,0,0,0-9.649-.511c-9.925,0-16.09,6.532-16.09,17.046v10.16Z" transform="translate(0 0)"/></g></svg>