<svg xmlns="http://www.w3.org/2000/svg" width="107.152" height="107.173" viewBox="0 0 107.152 107.173"><defs><style>.a{fill:#fff;}</style></defs><path class="a" d="M53.577,107.173c-14.423,0-16.331-.06-22.088-.313a39.54,39.54,0,0,1-13-2.491A26.52,26.52,0,0,1,9,98.192a26.3,26.3,0,0,1-6.2-9.5,39.318,39.318,0,0,1-2.492-13C.06,69.894,0,67.979,0,53.6,0,39.1.064,37.2.336,31.488a39.574,39.574,0,0,1,2.49-13A26.539,26.539,0,0,1,9,9a26.083,26.083,0,0,1,9.506-6.2,39.348,39.348,0,0,1,13-2.491C37.3.06,39.215,0,53.6,0,68.074,0,69.978.064,75.706.336a39.555,39.555,0,0,1,13,2.491A26.53,26.53,0,0,1,98.192,9a26.073,26.073,0,0,1,6.2,9.5,39.372,39.372,0,0,1,2.491,13c.249,5.659.272,7.517.272,22.088,0,14.382-.06,16.3-.314,22.088a39.562,39.562,0,0,1-2.491,13,27.466,27.466,0,0,1-15.682,15.682,39.327,39.327,0,0,1-13,2.491C69.906,107.113,68,107.173,53.577,107.173Zm.02-81.106A27.531,27.531,0,1,0,81.129,53.6,27.562,27.562,0,0,0,53.6,26.067Zm28.62-7.516a6.427,6.427,0,1,0,6.428,6.427A6.434,6.434,0,0,0,82.217,18.551ZM53.6,71.456a17.861,17.861,0,1,1,12.627-5.231A17.741,17.741,0,0,1,53.6,71.456Z" transform="translate(0 0)"/></svg>