<svg xmlns="http://www.w3.org/2000/svg" width="19.518" height="19.511" viewBox="0 0 19.518 19.511"><defs><style>.a{fill:#fff;}</style></defs><path class="a" d="M171.238,156.043l-5.762,5.762,5.762,5.762a1.122,1.122,0,0,1,0,1.577l-2.093,2.093a1.122,1.122,0,0,1-1.577,0l-5.762-5.762-5.762,5.762a1.122,1.122,0,0,1-1.577,0l-2.093-2.093a1.122,1.122,0,0,1,0-1.577l5.762-5.762-5.762-5.762a1.122,1.122,0,0,1,0-1.577l2.093-2.093a1.122,1.122,0,0,1,1.577,0l5.762,5.762,5.762-5.762a1.122,1.122,0,0,1,1.577,0l2.093,2.093A1.1,1.1,0,0,1,171.238,156.043Z" transform="translate(-152.05 -152.05)"/></svg>