<svg xmlns="http://www.w3.org/2000/svg" width="107.176" height="107.173" viewBox="0 0 107.176 107.173"><defs><style>.a{opacity:0.8;}.b{fill:#aeb4a6;}</style></defs><g class="a" transform="translate(0 0)"><path class="b" d="M53.637,107.173c-6.287,0-12.492-.253-18.441-.752a161.66,161.66,0,0,1-16.9-2.255C9.974,102.566,3.425,94.1,2,83.1A219.191,219.191,0,0,1,2,24.072C3.426,13.07,9.975,4.6,18.292,3A161.18,161.18,0,0,1,35.17.751C41.111.253,47.309,0,53.592,0s12.48.253,18.42.751A161.035,161.035,0,0,1,88.885,3c8.317,1.6,14.865,10.064,16.3,21.064a219.262,219.262,0,0,1,0,59.035c-1.438,11-7.985,19.47-16.291,21.069A190.413,190.413,0,0,1,53.637,107.173ZM39.557,28.954A4.361,4.361,0,0,0,35.195,33.3V73.866A4.349,4.349,0,0,0,41.766,77.6L75.775,57.351a4.353,4.353,0,0,0,.005-7.469L41.766,29.571A4.313,4.313,0,0,0,39.557,28.954Zm4.33,37.268V40.958l21.18,12.649L43.888,66.221Z" transform="translate(0 0)"/></g></svg>